# xmcd
#
# Track frame offsets: 
#        182
#        18007
#        34520
#        49220
#        67310
#        79347
#        94930
#        116877
#        133635
#        155112
#
# Disc length: 2311 seconds
#
# Revision: 0
# Processed by: cddbd v1.4PL0 Copyright (c) Steve Scherf et al.
# Submitted via: ExactAudioCopy v0.90b4
#
DISCID=8a09050a
DTITLE=Various Artist - Favorite Country Duets II
DYEAR=2000
DGENRE=Country
TTITLE0=Brock, Chad - Williams Jr., Hank - Jones, George - Country Boy C
TTITLE0=an Survive, A
TTITLE1=Engvall, Bill - Tritt, Travis - Here's Your Sign
TTITLE2=Yoakam, Dwight - Loveless, Patty - Send A Message To My Heart
TTITLE3=Parton, Dolly - Ronstadt, Linda - Harris, Emmylou - Those Memori
TTITLE3=es Of You
TTITLE4=Tritt, Travis - Stuart, Marty - Whiskey Ain't Working, The
TTITLE5=Foxworthy, Jeff - Jackson, Alan - Redneck Games
TTITLE6=Cochran, Anita - Wariner, Steve - What If I Said
TTITLE7=Rogers, Kenny - Carnes, Kim - Don't Fall In Love With A Dreamer
TTITLE8=Peterson, Michael - Bramlett, Bekka - Two Of The Lucky Ones
TTITLE9=Forester Sisters, The - Bellamy Brothers, The - Drive South
EXTD=
EXTT0=
EXTT1=
EXTT2=
EXTT3=
EXTT4=
EXTT5=
EXTT6=
EXTT7=
EXTT8=
EXTT9=
PLAYORDER=
